<svg xmlns="http://www.w3.org/2000/svg" viewBox="0 0 403.26 106.78"><defs><style>.cls-1{fill:none;stroke:#000;stroke-linecap:round;stroke-miterlimit:10;stroke-width:1.5px;}</style></defs><title>Casa de Burgos</title><g id="Capa_2" data-name="Capa 2"><g id="Casa_burgos_draw" data-name="Casa burgos draw"><path class="cls-1" d="M30.64,36.36c.56-7.82-1.78-30.47-9.3-28.29C17.58,7.08,6.9,22.71,3.54,41.7S.14,68.22,2.16,75.92c1.46,5.58,4.61,8.25,7.51,9.49,3.53,1.51,7.27-.19,11.08-2,9.56-4.5,15.27-12.3,19.78-18.59a96.6,96.6,0,0,0,5.54-8.7"/><path class="cls-1" d="M75,55.74c-.46,1.07-5.34,9.56-9.89,8.57-4.83-2,.66-18.29.26-18.46s0,5.69-3.23,11.86a38.86,38.86,0,0,1-9.3,11.48,4.42,4.42,0,0,1-7.12-2.77c-1-6.64,2.9-18.86,8.71-22.94,8.5-6.35,12,3.78,10.08,6.92"/><path class="cls-1" d="M85.43,43.46c.2-2,.75-6.1-1.78-6.31-4.1-.35-8.7,3.42-9.89,9.81,0,4.65.93,8.19,4.75,19.86,3.46,10.92,4.59,15.56,5.54,21,.26,5.81-.09,15.38-7.52,17.81-4,1.32-7.45-1.07-9.23-4.88-2.43-5.21.67-12.07,6.46-19.65,5.48-7.17,8.48-8.58,15-17,3.27-4.21,4.35-9.33,5.83-11.74"/><path class="cls-1" d="M109.38,47c.38-3.5-3.49-4.41-4.76-4.28-10-1.25-16.62,25.06-6.2,25.85,8.57-2.37,10.53-16.15,12-20.17.53-1.45-1,3-2.11,8-.82,3.86.48,9.89,2.51,9.76,3.56.88,10.53-8.94,11.21-10.06"/><path class="cls-1" d="M164.78,40.71c3.24-4.33,7.61-16.63,10.12-25.45,1.46-5.11,4.11-12.69,3.3-12.93-1.79-.52-10,35-13.06,50.24-.73,3.7-1.3,13.73,2.11,16,3.83,2.11,7.81-7,8.41-12.94,5.18-1,12-6.21,11.94-6.79-.2-1.4-2.52-2.65-5.84-1.37-6.42,2.49-8.83,15.29-4.75,18.6,1.81,1.46,4.59.8,6.33.39,8.1-1.91,11.9-10.14,12.66-11.87"/><path class="cls-1" d="M164.45,48.75c-.27-3.3-3-5-6.43-5.27-4.49-.39-9.56,7.07-11.07,10.41-1.72,3.81-3,10.44,0,14.9.19.3,2.16,3.11,5.14,3.17,3.34.06,6.33-2.24,9.49-7.91C161.86,63.73,165.94,55.59,164.45,48.75Z"/><path class="cls-1" d="M227.52,39.78c2.92-5.45,6-17,7.65-25.31C236.49,7.69,237.6.83,236.75.75c-3-.3-13,87.05-13.06,87s4.37-22.1,9.89-44.7c1.14-4.65,3-15.42,10.16-24.13,3.59-4.35,9-8.52,15.95-8.31,3.84.12,8.57,2.07,10.69,5.93,3.54,6.47-1.19,16.36-5.94,21.37-1,1.51-1.09,1.55-18.59,18.59-3.57,3.48-6.7,4.95-8.44,4.09-1.28-.64-1.65-1.82-.66-3.3,2-3,11.18-2.62,16.22,2.38a14.36,14.36,0,0,1,4,9.89c-.36,11.84-17.74,20.75-21.37,17.8-1.87-1.53-.25-6.36.4-8.31,5.85-17.51,33.09-22.62,38.58-23.56"/><path class="cls-1" d="M279.47,44.66c-4.2,5.11-6.71,11.47-4.54,16.09.72,2.11,2,2.9,4.53,3.42,6.61,0,13.86-15.43,14.39-19.82-1.72-1.93-2.32,7.13-.92,13,.34,1.43,1.06,4.47,3.16,5.15,2.56.82,5.43-1.71,7.12-4a42.71,42.71,0,0,0,7.52-15.83,23.31,23.31,0,0,0,1-10c-.17-.83-.32-6.24-4.22-7.38s-8.48,2.1-9.49,5.93c-1.2,4.53,2.86,9.34,6.72,11.08,4.74,2.13,8.41-.7,11.48,2,1.46,1.28,1.76,3.09,2.37,6.72.46,7.39.23,9.91,1.19,16.62.94,4.08,1.87,4.6,2.37,4.75,2.12.6,5-3.23,6.73-5.54a32.77,32.77,0,0,0,4.35-7.92"/><path class="cls-1" d="M351.08,45.85c-.77-1.5-2.33-4-4.75-4.35-4.88-.06-9,4.09-10.68,8.17-1,1.76-4,9.46-1.58,17.15.56,1.81,1.23,4,2.77,4.35.7.17,2.85.29,9.49-9.5,5.36-7.9,6.75-12.09,7.52-11.86-.79,5.29-3.93,12.49-5.54,31.25-.75,8.75-7,25.08-11.47,24.53-2.42-1.18-1.71-9,.39-15,4.62-12.13,9-13.91,17.8-23.73A137.86,137.86,0,0,0,363.34,55c-1.32,3.24-.51,6.24,1.19,7.12,1.87,1,4.33-.88,4.75-1.19A7.63,7.63,0,0,0,372.05,53c-.67-2.41-2.81-4.75-4-4.35-1.38.47-2.23,4.23-.79,6.72,1.74,3,11.15-3.37,11.87-4.22"/><path class="cls-1" d="M392.62,46.25c.15-3,.05-7.48-2-8.31-2.63-1.08-8.16,4-10.29,9.89-2,5.58-.55,10.75,2.38,20.57,3.43,9.53,5.06,11.21,5.54,17S388,103,380.75,105.59c-4.59,1.67-9.54-1.64-11.34-5.81-2.58-6,3.58-13.52,9.76-20.3,7.46-8.18,11.78-9.54,17.4-17.81a54.29,54.29,0,0,0,5.94-11.47"/></g></g></svg>