<svg xmlns="http://www.w3.org/2000/svg" viewBox="0 0 461.9 102.77"><defs><style>.cls-1{fill:none;stroke:#000;stroke-linecap:round;stroke-miterlimit:10;stroke-width:1.5px;}</style></defs><title>Cuando y Donde</title><g id="Capa_2" data-name="Capa 2"><g id="CyD_draw" data-name="CyD draw"><path class="cls-1" d="M29.73,33.45c.21-7.2-.33-14.63-1.32-18.39-2.25-8.5-5.28-7.91-6.33-8.24a6.17,6.17,0,0,0-4.49.52C10.43,11.25.87,31.67.91,52.05.1,66.68,2.3,78,8.63,81.45c3.57,2,7.92.18,10.81-1C23.36,78.73,27.53,76,35.26,67a155.7,155.7,0,0,0,11.34-15"/><path class="cls-1" d="M49.77,41.63c-2.18,6.14-3.15,9.63-3.17,13,0,3.06.87,5.63,1.59,6,2.18,1.11,7.09-4.49,8.7-6.33,5.92-6.76,9-13.82,9.23-13.72S63.21,45.67,63,52.44c-.09,2.25-.22,6,1.84,7.12s5.33-1,6.6-1.84a14.06,14.06,0,0,0,4.74-5.54"/><path class="cls-1" d="M92,48.75c1.25-3.78.49-7.36-1.59-8.7-3-1.94-5.51-.93-8.7,2.37S74.4,56,75.35,61.67c.79,5,5.55,6.46,11.08-1.32s9.5-17,9.23-17.14-5.07,7-3.69,13.72c.52,2.56,1.55,3,1.84,3.16,3,1.85,7.84-4.45,9.13-7.46a28.29,28.29,0,0,0,2.21-8.36c-.44,3.38-1.24,9.91-1.58,15,0,.81-.14,2.34.53,2.64,1,.43,2.92-1.95,3.69-2.9,2.91-3.59,3.81-6.61,6.33-12.4,2.94-6.74,3.79-7.42,4.48-7.38s1.24.8,3.17,5.53c2.77,5.88,5.14,12.6,11.6,12.93a6.59,6.59,0,0,0,5.21-3.89"/><path class="cls-1" d="M188,50.6a6.89,6.89,0,0,1-12.66,1.58c-1.41-2.42-1.33-6,0-6.59s3.84,1.36,4.74,3.69c1.44,3.68-1.07,9-4.74,9.76a4.79,4.79,0,0,1-4.49-1.32c-1.54-1.78-1.78-4.49-1-8.24-.39-2.77-11.42,15.4-12.72,14.57-6.26.46,11.44-61.63,12.4-61.31s-.08.95-6.62,24.38c-.5,2.39-5.38,22.9-10.79,31.92-1.7,2.82-7.61,9.23-12.4,5.8-4.08-4.08-1.18-16.17,5.28-21.36.87-.7,6.46-4.41,10.28-2.91,2.23,1.52,3,5.27,1.85,9.24"/><path class="cls-1" d="M215.4,43a25.79,25.79,0,0,0-2.64,10.55c-.06,2.18-.17,6.11,1.58,6.85C218.1,62,225.86,50.7,230.69,44c1.84-2.54,2.56-3.58,2.9-3.43.75.34-1.22,5.73-2.9,11.61a169,169,0,0,0-4.75,24A91.22,91.22,0,0,1,221.46,96c-.94,2.62-2.34,6.05-4.22,6.06-1.71,0-3-2.8-3.16-3.16-3.22-7.2,4.49-17.57,7.12-21.1,4.13-5.55,6-6,11.07-11.87a79.92,79.92,0,0,0,10.55-15.56"/><path class="cls-1" d="M266.16,40.56c3.76-6.24,8.63-18,10.16-26.89,1.11-6.47.27-12.88-.53-12.92-1.26-.06-3.69,15.48-8.7,76.48C269,67,271.32,55.53,274.21,43c3.08-13.4,4-22.35,11.54-31.45a13.67,13.67,0,0,1,11.67-3.89c8.13.86,12.11,15.76,12.39,16.88,4.59,17.91-6,37.14-18.19,48-8.61,7.65-23,15.51-28,11.34-2.23-1.86-1.88-5.52-1.85-5.81.48-4.41,4.88-9.11,30.6-18.46,7.26-2.64,17.39-6.07,29.8-9.49"/><path class="cls-1" d="M322.21,53.76c.28,2.68,1.42,5,3.16,5.54,2.65.76,6-3,6.6-6.59s-1.44-7.57-3.43-7.65c-1.56-.07-3,2.3-3.43,3.95a6.25,6.25,0,0,0,1.32,6.07c2.47,2.38,6.67,1.11,8.7,0,4.93-2.7,4.62-13.52,5.28-9.49a25.33,25.33,0,0,0-1.59,12.65c.18,1.46.44,3.52,1.32,3.7.68.14,1.62-.85,4.49-6.6,2.71-5.45,4.46-9.77,8.17-14.24,1.28-1.54,2.11-2.26,2.9-2.11,1.59.31,1.54,3.81,3.43,9.23,1.64,4.71,2.79,8,5.54,9,3.26,1.14,6.25-1,7.32-1.78,1.87-1.34,2.76-3.89,3.42-4.95"/><path class="cls-1" d="M392.89,48.75c0-.34.61-6.2-2.64-8.18-5.24-1.6-10.59,3.75-11.07,4.22-5.41,5.38-6.66,14.15-3.7,20.05.69,1.37,1.65,3.27,4.79,3.23,6.55-1.39,8.06-8,9.71-11.25,4.56-12.88,13.46-53.23,12.67-55.28-3,0-12.07,62-5.8,62.24,4.71-4,6.59-11.71,6.95-13.32.73.06,5.46.54,7.29-.92,2.44-1.94,3.19-5.75,2.11-6.59s-4.54,1.28-6.6,3.43c-4.66,4.86-6.24,13.76-2.9,16.35,7.45,2.37,17.48-9.39,18.46-11.61"/><path class="cls-1" d="M429,18.16c.38-1,3.77-9.77,12.92-12.4,4.64-1.33,12.19-1.5,16.36,3.17,6.35,7.11.16,20.21-.27,21.09-1.18,2.44-5.45,7.52-14,17.68-1.93,2.29-4.46,5.28-5,9.75a15.71,15.71,0,0,0,1.06,7.65"/><path class="cls-1" d="M441.85,71.53a1.71,1.71,0,0,0,1,2.29c.74.17,1.61-.34,1.65-.84C444.58,72.16,442.35,71.06,441.85,71.53Z"/></g></g></svg>