<svg xmlns="http://www.w3.org/2000/svg" viewBox="0 0 74.6 70.08"><title>El</title><g id="Capa_2" data-name="Capa 2"><g id="El"><path d="M47.2,7.68C40.2-.48,27.32-2.81,18.58,4a15.37,15.37,0,0,0-6,12.69c.17,4.68,2.57,9.24,6.91,11.28,4.53,2.12,10.38,1.48,13.81-2.35a.64.64,0,0,0-.61-1.05C24,26.27,14.79,28.13,7.84,34,2,39-1.48,46.42.61,54a22.23,22.23,0,0,0,15,15c8.14,2.42,17.09.44,24.26-3.83,8.43-5,14.57-13,19.58-21.28a.63.63,0,0,0-1.08-.63c-4.2,6.94-9.16,13.61-15.7,18.53S28.16,69.55,20.1,68.68A21.51,21.51,0,0,1,2.78,56.39c-3.22-7.11-1-14.73,4.4-20.09C14,29.5,23.86,27.55,33,25.77l-.61-1.05A10.52,10.52,0,0,1,21.14,27.3a11.2,11.2,0,0,1-7.3-9.92C13,7.38,22.55.65,31.84,1.24A21,21,0,0,1,46.31,8.57c.53.61,1.41-.28.89-.89Z"/><path d="M59.68,43.45a58.19,58.19,0,0,0,4-29.26c-.08-.68-1.12-1-1.29-.18A131.6,131.6,0,0,0,59.8,44.43c.06,2.57.18,5.13.34,7.69a56.72,56.72,0,0,0,.65,7.14,6,6,0,0,0,2.9,4.51,3.31,3.31,0,0,0,4-.87C69.31,61.12,70,58.5,71,56.36l3.57-8.22c.33-.77-.8-1.44-1.14-.67-1.78,4.11-3.5,8.25-5.35,12.33-.73,1.62-2.07,4-4.14,2.58-1.85-1.25-2-4-2.14-6a172.18,172.18,0,0,1-.3-26.87,112.8,112.8,0,0,1,2.15-15.2l-1.3-.17A57.38,57.38,0,0,1,58.41,43.1c-.32.79,1,1.13,1.27.35Z"/></g></g></svg>