<svg xmlns="http://www.w3.org/2000/svg" viewBox="0 0 105.32 69.58"><title>Ella</title><g id="Capa_2" data-name="Capa 2"><g id="Ella"><path d="M39.6,1.32C31.49-.76,21.43-1.1,15.35,5.68a14.28,14.28,0,0,0-3.9,10.1,12.41,12.41,0,0,0,5.65,9.35c4.37,3.06,9.82,3.68,15,4.25.8.09,1-1.3.19-1.41A30.5,30.5,0,0,0,10.6,33.23C4.51,37.55-.68,44.77.07,52.57c.68,7,5.88,13,12.3,15.54,7.27,2.91,15.72,1.23,22.26-2.73,7.87-4.77,13.14-12.79,16.69-21.09.36-.84-.88-1.58-1.24-.73-2.9,6.76-6.84,13.22-12.54,18s-13.38,7.56-20.78,6.3C10.11,66.72,4,61.89,2.07,55.33-.11,48,3.91,40.73,9.35,36a28.91,28.91,0,0,1,22.53-6.68l.2-1.42c-7.15-.8-17.62-2.46-19.09-11.18a12.32,12.32,0,0,1,2.92-9.52,15.94,15.94,0,0,1,9.35-5.39c4.62-.95,9.44-.3,14,.86a.72.72,0,0,0,.38-1.39Z"/><path d="M56.1,5.84A284.53,284.53,0,0,0,51,39.32c-.48,5.28-1,10.69-.06,16,.5,2.69,2.93,9.92,7,7.21,1.94-1.29,2.68-4.31,3.37-6.38a53.44,53.44,0,0,0,2.11-8.91c.16-1.07-1.47-1.53-1.63-.45a54.06,54.06,0,0,1-1.44,6.75A29.94,29.94,0,0,1,58,59.81c-.49.89-1.25,1.86-2.35,1.29a5.31,5.31,0,0,1-2-2.55,19.62,19.62,0,0,1-1.44-6.86,85,85,0,0,1,.66-14.08q.74-7.56,1.89-15.06,1.24-8.17,3-16.26c.23-1.06-1.4-1.51-1.63-.45Z"/><path d="M63.28,49.33C64.51,41.2,65.54,33,67,24.93c1.11-6.16,3.16-13.12.19-19.08-.42-.85-1.62-.37-1.67.46L64.15,29c-.35,5.79-.5,11.62-1.14,17.39-.35,3.26-.9,7.06.26,10.22a3.66,3.66,0,0,0,2.88,2.61,4.64,4.64,0,0,0,4-2c2.76-3.36,4-8,5.12-12.14a.9.9,0,0,0-1.74-.48,40.75,40.75,0,0,1-3.77,10c-.66,1.11-1.77,2.94-3.29,2.84-1.19-.08-1.57-1.4-1.79-2.38-.65-3-.15-6.3.19-9.32.6-5.47.71-11,1-16.5l1.39-23-1.68.45c2.87,5.77.41,12.8-.56,18.75-1.26,7.76-2.36,15.56-3.53,23.34-.18,1.13,1.56,1.62,1.73.48Z"/><path d="M73.8,50a33.25,33.25,0,0,1,3-5.53A15.43,15.43,0,0,1,81,40a6.72,6.72,0,0,1,5.61-1,3.7,3.7,0,0,1,2.67,4.16c-.2.84,1.1,1.2,1.3.36a4.92,4.92,0,0,0-2.22-5.17A7.09,7.09,0,0,0,81.91,38a12.75,12.75,0,0,0-5.25,4.38,32.47,32.47,0,0,0-4,6.94c-.34.79.83,1.48,1.17.68Z"/><path d="M72.9,46.57c-1.2,3.48-2.46,7.45-.73,11,1.33,2.72,4.3,4.6,7.33,3.58,3.29-1.11,5.66-4.57,7.6-7.25a50.52,50.52,0,0,0,5.76-10.46c.29-.73-.82-1.11-1.21-.51a25.13,25.13,0,0,0-3.91,9.77c-.44,2.64-.56,6,2.34,7.24s6.21-.6,8.59-2.32a24,24,0,0,0,6.56-7.27.66.66,0,0,0-1.14-.67,22.36,22.36,0,0,1-5.13,6c-2,1.66-5.09,3.95-7.86,3.19C87.93,58,88.75,54,89.3,51.58a24.48,24.48,0,0,1,3.49-8l-1.21-.51A48.4,48.4,0,0,1,87,51.77c-1.72,2.56-3.73,5.52-6.31,7.29-2.8,1.93-5.91.78-7.34-2.18-1.53-3.16-.2-6.87.86-10,.28-.81-1-1.15-1.27-.35Z"/><path d="M56.22,5.91q-2.7,19.32-5,38.69c-.14,1.15,1.66,1.14,1.79,0Q55.29,25.46,58,6.39c.15-1.13-1.58-1.62-1.74-.48Z"/></g></g></svg>