<svg xmlns="http://www.w3.org/2000/svg" viewBox="0 0 182.73 107.46"><defs><style>.cls-1{fill:none;stroke:#000;stroke-linecap:round;stroke-linejoin:round;stroke-width:1.5px;}</style></defs><title>Historia</title><g id="Capa_2" data-name="Capa 2"><g id="Historia_Draw" data-name="Historia Draw"><path class="cls-1" d="M3.7,36.62c3.16-3.41,8.21-10,9-19C13.08,12.7,12.13,8,11.61,8,10.74,8,11,21.44,9.5,43.21,7.52,72.42,4.78,82.47,5,82.51s4.85-12.67-.79-22.16C2.65,57.7.4,55.52.8,55.08c.59-.65,45,12.32,53,.79a20.29,20.29,0,0,0,3.43-9.49c-2,3.46-6.19,11.78-3.7,20,.46,1.49,1,3.33,2.38,3.69,3,.82,7.7-6.61,11.34-13.45"/><path class="cls-1" d="M42.47,9.45q-3,40-6.07,79.92"/><path class="cls-1" d="M79.65,47.43c.29-.92,1-3.69-.26-5-1.69-1.7-6.28-.52-8.7,1.85-4.75,4.64-2.12,14.86.79,26.11,2.43,9.4,4,10.59,4.22,16.88.16,3.92.53,12.52-5,16.87-2,1.55-5.86,3.48-7.65,2.11-3.3-2.51,3.42-14,14-39.82C84.52,48.05,97.5,1.69,97.85.75c-4.73,16.58-5.94,37.19-9.49,57-2.26,12.57-4,24.64-5.28,36.13"/><path class="cls-1" d="M95.74,53.76a6.09,6.09,0,0,0-2.11,7.12c1,2.12,3.36,3.53,5.28,3.17,4-.77,6.59-9.5,3.69-12.4-1.13-1.12-3.28-1.57-4-.79-1.48,1.7,3,10.35,7.39,10.29,2.89,0,4.76-3.94,8.17-11.08,2.6-5.43,3.9-8.14,3.7-11.87-.29-5.3-3.47-12.08-7.39-12.13-4.18-.05-8.9,7.59-7.12,11.34s4.75,4.48,13.69,6.14c1.85,1.4,8.08.63,8.73,1.71.82,5.1-3.29,14.11-1.32,23.8.5,2.46,1,5.09,2.64,5.54,3.64,1,10.18-10,13.45-18.2,1.74-4.37,2.15-5.54,2.66-8.18-1.62,3.1-6.44,11.39-2.66,19.52,1,2.25,2,2.56,2.37,2.64,3.31.65,7.68-7.67,10.55-14"/><path class="cls-1" d="M170.12,50.86c0-1.49-.28-4.86-2.38-6.07-5.27-5-22.68,15.83-13.45,26.91,4.39,1.84,8.23-3.44,11.87-10,1.49-2.7,1.73-3.06,4.8-7.94-1,1.38-3.45,7.94,1.27,11.64,3.19,1.12,8.73-7.61,9.75-9.24"/><path d="M56.06,40.46l-.39,2.14a.94.94,0,0,0,0,.5.79.79,0,0,0,.15.46,1.26,1.26,0,0,0,.74.58,1.32,1.32,0,0,0,1-.13,1.23,1.23,0,0,0,.57-.75l.39-2.13a.94.94,0,0,0,0-.5.89.89,0,0,0-.14-.47,1.3,1.3,0,0,0-.75-.57,1.24,1.24,0,0,0-1,.13,1.23,1.23,0,0,0-.58.74Z"/><path d="M143,42.87l-.53,1.05a1,1,0,0,0-.15.47.91.91,0,0,0,0,.49.94.94,0,0,0,.23.43,1,1,0,0,0,.35.32l.3.13a1.23,1.23,0,0,0,.66,0l.3-.13a1.21,1.21,0,0,0,.45-.45l.53-1a1,1,0,0,0,.15-.46.94.94,0,0,0,0-.5.93.93,0,0,0-.22-.43,1,1,0,0,0-.36-.32l-.29-.13a1.27,1.27,0,0,0-.67,0l-.3.13a1.29,1.29,0,0,0-.45.45Z"/><path d="M77.54,15.71h34.29a1.25,1.25,0,0,0,0-2.5H77.54a1.25,1.25,0,0,0,0,2.5Z"/></g></g></svg>