<svg xmlns="http://www.w3.org/2000/svg" viewBox="0 0 340.93 88.73"><defs><style>.cls-1{fill:none;stroke:#fff;stroke-linecap:round;stroke-linejoin:round;stroke-width:1.5px;}</style></defs><title>Save the Date_W</title><g id="Capa_2" data-name="Capa 2"><g id="Save_the_date_daw" data-name="Save the date daw"><path class="cls-1" d="M35.17,22.71c.11-.88,1-8.27-4.15-12.86C25.55,5,17.78,7.29,15.19,8.07A20.67,20.67,0,0,0,3.52,17c-4,6.69-2.69,13.73-2,16.42C4,42.58,12.22,48.91,17,52.57s9.09,5.77,11.28,11.28a12.82,12.82,0,0,1,1,7.12c-1.4,7.68-11.44,13.41-18.6,11.28-.52-.16-4.77-1.43-5.54-4.55-.39-1.62-.08-4.61,6.73-10.29,5-4.19,15-12.48,35-18.3"/><path class="cls-1" d="M63.26,44.86c0-.8,0-5.12-2.57-6.53-3.82-2.1-9.85,4.27-10.29,4.75-4.89,5.28-7.91,18.4-3.56,20,2.57,2.17,8,.45,13.65-8.9,1.3-2.17,1.93-3.6,4.26-7.53-.69.8-3.67,12.47.88,13.86,4.34-1.82,5.48-3.92,8.7-8.9"/><path class="cls-1" d="M75.13,39.92c1.28,12.4,2.52,20.8,3.36,25.91.34,2,1,5.77,2.37,5.93s2.65-2.85,3.76-5.54C88.79,56.14,91.77,49,92.93,36.55a101.66,101.66,0,0,0,.39-12.26c-1.6,13.8-.76,22.47,0,27.1.31,1.85.83,4.45,2.57,5.14,3.51,1.39,7.3-6.46,8-7.39.48,0,5.48.72,7.42-1.51,1-1.17,1.82-3.13,1.19-3.76-.79-.79-3.79.63-5.74,2.18-3.52,2.8-6.88,8.61-4.74,13.45.31.71,1.25,2.83,3.16,3.56,4,1.52,10.78-3.77,16.62-13.25"/><path class="cls-1" d="M145.15,58.11c1.32-8.35,3.61-21.17,7.51-36.79C155.56,9.77,158.29.84,158,.75s-5.21,12.86-8.7,25.71C141.18,56.4,140.15,87.1,143,87.59c3.47.59,14.74-44.11,21-77.15.65-3.47,1.18-6.45,1.58-8.75L153.85,64.84A50.37,50.37,0,0,1,162.16,50c1.6-2,6.75-8.26,9.3-7.12,1.16.53.9,2.22,2,7.32,1.3,6.2,2,9.37,4,10.09,3,1.07,10-10.8,10.59-12.26,2.3.69,6.11,1.62,7.41,0s1.59-4.22.59-5c-1.27-.94-4.69,1.19-6.72,3.36-3.7,4-5.7,11.17-2.57,14.44a6.75,6.75,0,0,0,4.74,1.78c8.39.21,14-11.94,14.24-12.46"/><path class="cls-1" d="M230.6,35.76a42.69,42.69,0,0,0,8.7-17.4c1.92-8.37.93-16.61,0-16.67-1.29-.08-3.93,15.72-9.49,74.42a309.36,309.36,0,0,1,11.27-46.88C245.3,16.34,249,8.16,255.72,6.68c5.26-1.14,10,2.31,10.88,3,8.11,6.17,7.17,18.83,6.72,24.73-1.41,18.86-13.4,31.21-15.43,33.23-12.06,12.06-25.31,15.82-30.26,14.64C222.88,77.1,246.81,61,265,54.82c5.85-2,10.91-3.6,20.22-6.2"/><path class="cls-1" d="M301.61,43.67c-.24-1.43-.92-4.22-3-5.14-4-1.81-9.78,5.13-10.28,5.74-5.12,6.26-8.51,18.48-3,20.57,3.76.39,8.51-2.64,11.47-8.51,1.38-2.73,3.17-4.94,4.95-10.88-1.13,2.06-2.44,13.06-.4,13.06s15.3-37.06,22.95-55.58c-3.46,10.93-6.74,23-9.5,36.19A375.76,375.76,0,0,0,307.94,88"/><path class="cls-1" d="M305.37,26.27l34.81-.2"/><path class="cls-1" d="M318.62,50c3.94-.1,6.79-1.64,7.32-3.75.3-1.23-.11-2.88-1-3.17-2.08-.67-7.65,6-7.71,13.45,0,2-.05,5,1.58,5.93,2.05,1.17,6.76-1,17.6-12.85"/><path class="cls-1" d="M134.27,17.17H158.8"/></g></g></svg>